<svg xmlns="http://www.w3.org/2000/svg" viewBox="0 0 20 15"><rect width="20" height="15" fill="#002395"/><polygon points="4,0 20,15 20,0" fill="#FECB00"/><g fill="#fff"><polygon points="6,2.5 6.3,3.4 7.2,3.4 6.5,4 6.7,4.8 6,4.3 5.3,4.8 5.5,4 4.8,3.4 5.7,3.4"/><polygon points="9,5 9.3,5.9 10.2,5.9 9.5,6.5 9.7,7.3 9,6.8 8.3,7.3 8.5,6.5 7.8,5.9 8.7,5.9"/><polygon points="12,7.5 12.3,8.4 13.2,8.4 12.5,9 12.7,9.8 12,9.3 11.3,9.8 11.5,9 10.8,8.4 11.7,8.4"/><polygon points="15,10 15.3,10.9 16.2,10.9 15.5,11.5 15.7,12.3 15,11.8 14.3,12.3 14.5,11.5 13.8,10.9 14.7,10.9"/></g></svg>
