<svg xmlns="http://www.w3.org/2000/svg" viewBox="0 0 20 15"><rect width="20" height="15" fill="#00247D"/><g fill="#CC142B"><polygon points="14,3 14.3,3.9 15.2,3.9 14.5,4.5 14.7,5.3 14,4.8 13.3,5.3 13.5,4.5 12.8,3.9 13.7,3.9" transform="scale(0.7) translate(5,1)"/><polygon points="16,6 16.3,6.9 17.2,6.9 16.5,7.5 16.7,8.3 16,7.8 15.3,8.3 15.5,7.5 14.8,6.9 15.7,6.9" transform="scale(0.7) translate(5,1)"/><polygon points="15,9 15.3,9.9 16.2,9.9 15.5,10.5 15.7,11.3 15,10.8 14.3,11.3 14.5,10.5 13.8,9.9 14.7,9.9" transform="scale(0.7) translate(5,1)"/><polygon points="13,7 13.3,7.9 14.2,7.9 13.5,8.5 13.7,9.3 13,8.8 12.3,9.3 12.5,8.5 11.8,7.9 12.7,7.9" transform="scale(0.7) translate(5,1)"/></g><g transform="translate(0,0)"><rect width="10" height="7.5" fill="#00247D"/><g fill="#fff"><polygon points="0,0 10,7.5" stroke="#fff" stroke-width="1.2"/><polygon points="10,0 0,7.5" stroke="#fff" stroke-width="1.2"/><rect x="4" y="0" width="2" height="7.5"/><rect x="0" y="2.75" width="10" height="2"/></g><g fill="#CC142B"><polygon points="0,0 10,7.5" stroke="#CC142B" stroke-width="0.6"/><polygon points="10,0 0,7.5" stroke="#CC142B" stroke-width="0.6"/><rect x="4.4" y="0" width="1.2" height="7.5"/><rect x="0" y="3.15" width="10" height="1.2"/></g></g></svg>
