<svg xmlns="http://www.w3.org/2000/svg" viewBox="0 0 20 15"><rect width="20" height="7.5" fill="#EE2536"/><rect width="20" height="7.5" y="7.5" fill="#fff"/><circle cx="4.5" cy="3.75" r="2" fill="#fff"/><circle cx="5.2" cy="3.75" r="1.7" fill="#EE2536"/><g fill="#fff" transform="translate(6,2) scale(0.4)"><polygon points="0,-2 0.5,-0.6 1.9,-0.6 0.7,0.3 1.2,1.6 0,0.7 -1.2,1.6 -0.7,0.3 -1.9,-0.6 -0.5,-0.6"/><polygon points="3,-1 3.3,-0.1 4.2,-0.1 3.5,0.5 3.7,1.3 3,0.8 2.3,1.3 2.5,0.5 1.8,-0.1 2.7,-0.1"/><polygon points="4,2 4.3,2.9 5.2,2.9 4.5,3.5 4.7,4.3 4,3.8 3.3,4.3 3.5,3.5 2.8,2.9 3.7,2.9"/><polygon points="2.5,4 2.8,4.9 3.7,4.9 3,5.5 3.2,6.3 2.5,5.8 1.8,6.3 2,5.5 1.3,4.9 2.2,4.9"/><polygon points="0,3.5 0.3,4.4 1.2,4.4 0.5,5 0.7,5.8 0,5.3 -0.7,5.8 -0.5,5 -1.2,4.4 -0.3,4.4"/></g></svg>
